<svg width="640" height="640" viewBox="0 0 640 640" fill="none" xmlns="http://www.w3.org/2000/svg">
<path d="M100.4 417.2C104.5 402.6 112.2 389.3 123 378.5L304.2 197.3L338.1 163.4C354.7 180 389.4 214.7 442.1 267.4L476 301.3L442.1 335.2L260.9 516.4C250.2 527.1 236.8 534.9 222.2 539L94.3998 574.6C86.0998 576.9 77.0998 574.6 70.9998 568.4C64.8998 562.2 62.5998 553.3 64.8998 545L100.4 417.2ZM156 413.5C151.6 418.2 148.4 423.9 146.7 430.1L122.6 517L209.5 492.9C215.9 491.1 221.7 487.8 226.5 483.2L155.9 413.5H156ZM510 267.4C493.4 250.8 458.7 216.1 406 163.4L372 129.5C398.5 103 413.4 88.1004 416.9 84.6004C430.4 71.0004 448.8 63.4004 468 63.4004C487.2 63.4004 505.6 71.0004 519.1 84.6004L554.8 120.3C568.4 133.9 576 152.3 576 171.4C576 190.5 568.4 209 554.8 222.5C551.3 226 536.4 240.9 509.9 267.4H510Z" fill="black"/>
</svg>
